<?xml version="1.0" encoding="utf-8"?>
<!-- Svg Vector Icons : http://www.onlinewebfonts.com/icon -->
<!DOCTYPE svg PUBLIC "-//W3C//DTD SVG 1.1//EN" "http://www.w3.org/Graphics/SVG/1.1/DTD/svg11.dtd">
<svg version="1.1" xmlns="http://www.w3.org/2000/svg" xmlns:xlink="http://www.w3.org/1999/xlink" x="0px" y="0px" viewBox="0 0 1000 1000" enable-background="new 0 0 1000 1000" xml:space="preserve">
<metadata> Svg Vector Icons : http://www.onlinewebfonts.com/icon </metadata>
<g><g transform="translate(0.000000,511.000000) scale(0.100000,-0.100000)"><path d="M4711.9,4282.1c-21.1-61.3-44.1-122.6-47.9-136.1c-5.7-13.4-34.5-28.7-67.1-34.5c-30.7-7.7-57.5-17.2-57.5-24.9c0-5.8-9.6-24.9-19.2-40.2c-15.3-23-28.7-17.2-82.4,34.5c-70.9,69-205,107.3-205,59.4c0-15.3,13.4-44.1,28.7-63.2c47.9-63.2,34.5-82.4-69-95.8c-130.3-17.2-197.4-88.1-228-231.9c-15.3-78.6-28.7-101.6-49.8-92c-15.3,5.7-76.7-23-138-65.2c-59.4-40.2-132.2-84.3-159.1-95.8c-46-19.2-47.9-28.7-46-157.1c1.9-74.7,7.7-141.8,15.3-147.6c32.6-32.6,7.7-80.5-76.7-153.3c-88.1-76.7-90.1-82.4-65.2-128.4c23-42.2,21.1-59.4-3.8-126.5c-19.2-44.1-26.8-101.6-21.1-132.2c7.7-42.2-1.9-69-40.2-116.9c-46-53.7-49.8-67.1-30.7-109.2c17.2-40.2,13.4-57.5-21.1-105.4c-32.6-42.2-44.1-92-49.8-189.7l-7.7-134.1h-80.5c-120.7,0-138-19.2-113.1-122.6l19.2-88.2l-97.7-28.7c-53.7-17.2-168.6-36.4-254.9-42.2c-88.1-5.7-159-19.2-159-26.8c0-34.5-122.6-76.7-285.5-101.6c-92-13.4-189.7-38.3-214.6-55.6c-24.9-19.2-74.7-32.6-109.2-32.6c-55.6,0-86.2,23-224.2,161c-155.2,157.1-161,161-360.3,228c-174.4,57.5-222.3,84.3-339.2,182.1c-95.8,80.5-187.8,136.1-312.4,187.8c-205,86.2-289.4,155.2-415.8,343C126.2,2889,74.4,2887.1,110.8,2592c42.2-348.8,147.6-632.4,272.1-737.8c34.5-28.7,109.2-76.7,168.6-107.3c59.4-30.7,124.6-80.5,143.7-111.1c21.1-30.7,61.3-70.9,92-92c65.2-44.1,67.1-59.4,11.5-74.7c-113.1-34.5-164.8-72.8-197.4-145.6c-32.6-70.9-32.6-76.7-1.9-99.6c17.2-11.5,38.3-49.8,46-80.5c11.5-42.2,36.4-69,99.6-99.7c93.9-44.1,115-42.2,115,11.5c0,19.2,11.5,46,24.9,57.5c21.1,15.3,40.2,3.8,88.2-55.6c34.5-42.2,78.6-76.7,97.7-76.7c32.6,0,38.3-13.4,38.3-74.7c0-42.2,9.6-82.4,21.1-90.1c11.5-5.7,17.2-46,13.4-86.2c-7.7-92,34.5-103.5,67.1-17.2c15.3,40.2,34.5,57.5,65.2,57.5c38.3,0,44.1-9.6,44.1-70.9c0-40.2,17.2-111.1,38.3-157.1c49.8-109.2,47.9-116.9-19.2-116.9c-49.8,0-57.5-7.7-57.5-49.8c0-32.6-34.5-84.3-107.3-162.9L1065.1,98.8l13.4-128.4c7.7-72.8,24.9-185.9,40.2-254.9c13.4-67.1,21.1-130.3,15.3-139.9c-3.8-7.7-61.3-9.6-124.6-1.9l-116.9,13.4l11.5-107.3c21.1-205.1,92-283.6,297-331.5l101.6-23l-11.5,55.5c-15.3,69,3.8,103.5,40.2,72.9c15.3-11.5,26.8-55.6,26.8-95.8c0-65.2,7.7-76.7,67.1-105.4c90.1-42.1,95.8-57.5,57.5-130.3c-23-42.1-30.7-80.5-21.1-115c13.4-51.7,17.2-51.7,103.5-40.2l90.1,11.5l36.4-168.6c40.2-185.9,47.9-312.3,26.8-450.3l-15.3-92h105.4h105.4v-126.5c0-103.5,5.7-124.6,28.7-115c84.3,30.6,216.5,32.6,274,3.8c34.5-17.2,61.3-40.2,61.3-49.8c0-42.1,147.6-122.6,310.4-170.5c97.7-28.8,249.1-88.1,335.4-132.2c88.1-44.1,162.9-80.5,168.6-80.5c5.7,0,9.6,17.3,9.6,38.3c0,46,0,46,344.9,17.2l254.9-21.1l57.5,61.3c47.9,51.7,67.1,59.4,116.9,49.8c180.1-34.5,195.5-34.5,220.4-5.7c21.1,26.8,28.7,24.9,61.3-7.7c34.5-34.5,61.3-38.3,214.6-34.5c170.6,5.8,182.1,3.8,348.8-72.8c218.5-99.6,356.4-139.9,471.4-139.9c122.6,0,143.7,9.6,210.8,107.3c93.9,138,113.1,120.8,241.5-208.8c51.7-134.2,63.2-191.6,55.6-247.2c-5.7-40.2-15.3-109.2-21.1-155.2c-19.2-147.6-28.7-164.8-115-224.2c-69-47.9-86.2-72.8-99.6-139.9c-13.4-65.2-28.8-88.2-88.1-118.8c-126.5-69-111.2-116.9,57.5-170.6c92-30.6,197.4-109.2,197.4-147.5c0-26.8,51.8-19.2,76.7,11.5c32.6,40.2,99.7,36.4,139.9-9.6c26.8-30.6,40.2-34.5,82.4-17.2c28.7,9.6,65.1,13.4,82.4,7.7c17.3-7.7,42.1,5.8,59.4,28.8c28.7,38.3,30.7,38.3,132.2-32.6c103.5-72.8,105.4-72.8,298.9-72.8c155.2,0,203.1-7.7,247.2-34.5c28.8-19.2,55.6-32.6,57.5-28.8c105.4,168.6,128.4,191.6,155.2,149.5c23-38.3,76.7-17.2,155.2,59.4c84.3,82.4,122.7,84.3,122.7,5.8c0-51.7,21.1-55.6,151.4-24.9c46,9.6,86.2,15.4,90,11.5c3.9-3.8,0-34.5-9.6-67.1c-17.2-59.4-15.3-57.5,116.9,55.6c93.9,80.5,141.8,109.2,155.2,95.8c13.4-13.4,36.4-7.7,74.7,19.2c30.7,23,84.3,47.9,120.7,57.5c36.4,9.6,82.4,44.1,105.4,74.7c69,95.8,224.2,134.1,354.5,88.1c28.7-11.5,24.9-3.8-13.4,30.7l-53.7,46l65.2,95.8c38.3,55.6,93.9,111.2,138,132.2c42.2,21.1,78.6,40.2,82.4,44.1c3.8,1.9-19.2,42.2-51.7,88.2c-74.7,103.5-82.4,184-17.3,184s272.1,78.6,333.4,126.5l53.6,42.2l-42.1,59.4c-63.3,84.3-55.6,97.7,53.6,97.7c86.2,0,95.8,3.8,84.3,32.6c-47.9,116.9-49.8,166.7-17.3,297l34.5,132.2l70.9-11.5c63.3-11.5,76.7-5.7,103.5,36.4c19.2,28.8,72.8,63.2,126.5,82.4c92,32.6,93.9,36.4,93.9,111.2c0,42.1-23,145.6-49.8,228c-51.7,166.7-49.8,197.4,15.4,207c32.6,3.8,61.3,40.2,111.1,136.1c67.1,132.2,124.6,184,207,185.9c40.2,0,42.1,7.7,42.1,164.8c0,136.1,9.6,187.8,55.6,300.9c28.8,76.7,59.4,164.8,67.1,197.4c13.4,55.6,9.6,61.3-49.8,72.8c-63.3,11.5-187.8,115-187.8,155.2c0,13.4,13.4,49.8,30.7,84.3c21.1,44.1,26.8,86.2,19.2,138c-13.4,84.3,9.6,143.7,70.9,193.6l42.1,32.6l-46,101.6c-82.4,187.8-88.1,224.2-44.1,343l38.3,109.2l-147.6-9.6l-145.6-9.6l-90,78.6c-97.7,86.2-251,164.8-364.1,184c-40.2,7.7-72.8,21.1-72.8,28.7c0,9.6,26.8,59.4,59.4,111.1c74.7,120.7,90.1,230,46,306.6c-32.6,55.6-32.6,57.5,17.3,130.3c61.3,92,61.3,128.4,3.8,283.6c-26.8,69-53.6,164.8-59.4,216.6c-7.7,49.8-34.5,136-59.4,187.8c-65.2,134.1-90,297-78.6,504l7.7,176.3l-72.8,84.3c-101.6,115-172.5,141.8-260.6,99.7c-70.9-34.5-99.7-21.1-101.6,42.2c0,11.5-23,23-49.8,23c-30.7,0-70.9,23-105.4,59.4c-44.1,46-101.6,72.8-279.8,126.5c-122.6,36.4-260.6,72.8-306.6,80.5c-80.5,15.3-86.2,13.4-134.1-47.9c-49.8-65.2-120.7-88.1-120.7-38.3c0,15.3-26.8,82.4-57.5,149.5c-32.6,65.2-63.2,149.5-69,184c-11.5,59.4-49.8,82.4-74.7,42.2c-24.9-40.2-76.7-15.3-151.4,69l-78.6,86.2l-115-40.2c-237.6-84.3-425.4-47.9-523.1,97.7c-38.3,55.6-55.6,65.2-122.6,65.2c-72.8,0-84.3,7.7-128.4,82.4c-30.7,49.8-82.4,101.6-134.1,130.3c-82.4,46-84.3,46-197.4,15.3c-105.4-30.7-124.6-30.7-298.9,0c-101.6,17.2-293.2,42.2-423.5,55.6l-237.6,23l-26.8,92c-13.4,49.8-34.5,90.1-44.1,90.1C4759.8,4391.4,4734.9,4341.6,4711.9,4282.1z"/></g></g>
</svg>