<svg xmlns="http://www.w3.org/2000/svg" viewBox="0 0 248.84 134.54"><defs><style>.cls-1{fill:#c02226;}.cls-2{fill:#c12527;}.cls-3{fill:#c22a2a;}.cls-4{fill:#c22729;}.cls-5{fill:#c2292a;}.cls-6{fill:#c22829;}.cls-7{fill:#f16038;}.cls-8{fill:#cb3c39;}.cls-9{fill:#c9403b;}.cls-10{fill:#cd4540;}.cls-11{fill:#bf2628;}.cls-12{fill:#cf3938;}.cls-13{fill:#ce3634;}.cls-14{fill:#d3534f;}.cls-15{fill:#e17067;}.cls-16{fill:#e67361;}.cls-17{fill:#d97073;}.cls-18{fill:#d55656;}.cls-19{fill:#ca4b45;}.cls-20{fill:#c53330;}.cls-21{fill:#c9433c;}.cls-22{fill:#d76a63;}.cls-23{fill:#f3714a;}.cls-24{fill:#bd2126;}</style></defs><title>europe</title><g id="Layer_2" data-name="Layer 2"><g id="Layer_2-2" data-name="Layer 2"><path class="cls-1" d="M181.78,118.57c-3.24-1.29-6.55-2.47-9-5.15-2.46-.94-5.06-1.51-7.32-3H161.6c-4.31-1.7-7.9-4.62-11.75-7.09-3-1.92-.68-4.85-.92-7.75-2.25,1.12-5,.69-6,3.62a4.4,4.4,0,0,1-.31,2.63c-3,2.45-5,1.26-6.82-1.56-2.16-3.32-4.08-3.56-6.48-.55-2.76,3.46-5.71,7.06-3.7,12.06,1.15,2.84-.84,3.33-2.82,4-3,1-6.31-.74-9.15,1.2-1.67.6-4,.82-2,3.52a6.62,6.62,0,0,1,1,2.27c.64,2.52.37,5.13-2.44,5.63s-4.55-1.49-4.78-4.47c0-.57,1.09-1.34.08-1.63-5.1-1.47-5.69-6-7.06-10a2.59,2.59,0,0,0-1.16-1.58c-5.2-2.3-9.18-6.81-15.82-8.92a39.82,39.82,0,0,0,10.26,10c4.22,2.87,4.64,5.61,2,9.92a2.94,2.94,0,0,1-2.34,1.66c-1.34,0-1.52-1.13-1.66-2.06-.5-3.17-2.49-5-5.3-6.07A19.59,19.59,0,0,1,75,107.35c-1.71-2.54-3.37-3.42-6.1-1.53-2.51,1.74-5.27,2.81-8.46,2.08-1-.23-2.41-.15-2.65.82-1,3.75-4.52,4.62-6.95,6.73a10.43,10.43,0,0,0-3.69,5.75,9,9,0,0,1-5.83,6.37c-3.2,1.29-6.82,1.24-10,2.84-.85.43-1.38-.6-1.61-1.45-1.24-.8-2.47-2.28-3.71-2.29-6.09,0-4.26-4.37-4.13-7.48.14-3.39,1.67-6.51,1.21-10.18-.4-3.21,2.7-3.68,5.39-3.34,2.94.37,5.86,1,8.81,1.27s5.43.23,6.43-3.7c1-4.12,1-7.38-2.75-10-1.29-.91-3.38-.45-4.36-2.81a27.08,27.08,0,0,0,13.46-3.87A80.5,80.5,0,0,0,62,77.45c1.94-1.71,3.68-3.12,6.38-3.1,3.61,0,4.18-1.94,3-4.89-1.34-3.25-.26-5.39,2.94-6.67,1.71,1.49-.31,3.13.29,4.61a4.86,4.86,0,0,1,2.09,1.85c3.51,3.45,7.88,1.77,11.9,1.87,1.58,0,3.19-1.07,4.84-.86,4.88.64,8.17-.62,8.28-6.25,0-.65.41-1.71.87-1.67,4.91.43,3.83-4.55,6-6.54,2.68-1.32,5.56.52,9.4-.78-4.46-.88-7.79.79-11.13.32-6.85-2.75-7.65-5.12-3.73-11a16.1,16.1,0,0,0,1.75-3c.24-.63.44-1.32-.16-1.83a1.22,1.22,0,0,0-1.72.13l0,.06c-2.5,3.39-6.07,5.54-9.21,8.2-1.76,1.49-1,3.35.54,4.7,2.59,2.21,2.14,4.26-.26,6.15-1.91,1.5-2.78,3.63-4,5.63-2.49,4.3-5.24,5-9.21,2.69-.08-.22-.16-.44-.25-.66.54-3.39-1.87-5.46-3.5-7.9-1.43-2.12-2.61-.47-3.66.28-3.39,2.42-6.36,1.85-8.55-1.44-2.46-3.68-1.33-7.82,2.41-10,2.54-1.47,5.45-2,8.06-3.55,4.86-2.92,7.22-8,11.34-11.55,6.21-5.37,13.22-7.53,21-7.78,6.1-.2,11.56,1.65,17.36,4,4.1,1.62,9.66,1.85,14.49,3.09,1.65.43,4.32.72,3.73,3.08-.41,1.6-2.85,1.67-4.68,1.84-3.09.28-5.77-1.25-8.7-1.7-1.62-.24-3.17-.79-5.35.54,4.37,1.3,4.79,6.09,8.68,7.74,2.41,1,4.28,1.44,6.24-.46-.3-1,0-1.47,1.11-1.21,3.28-1.81,5.49-5.4,9.86-5.51,1.32,0,.27-1.48.14-2.34-.1-.69-1.79-1.76.13-2.15.94-.2,2.34-.72,2.86.93,1.3,4.09,3.89,2.56,6.08,1.17a16.45,16.45,0,0,1,12.9-2.64c3.48.66,8.34.84,11.86-2.15-.14-1.81.71-2,2.11-1.3l13,3.54c.42,3.45-2.32,4.39-4.56,5.68-1.72,1-3.52,1.86-5.28,2.78-1.92,1.76,1.6,3.69-.17,5.46.52.83,1,1.67,1.54,2.5,2.49,1.71,2.23,4.53,2.83,7,.37,2.44-.45,5.15,1.63,7.21,2.85,3,2,4.84-1.81,5.77-2.23,1.85.55,2.75.79,4.13a2.72,2.72,0,0,0,2.23,1.79c.75-1.44,2-2.52,2.88-3.86,3.59,2,3.33,5.79,3.66,9,.3,3-2.34,3.55-4.76,3.79-1.19-1.06-3-.85-4.16-1.86l-2-.23c-1.17-2.31-2.93-.56-4.42-.64-2.48,1.86-5,.72-7.53.16a3.61,3.61,0,0,0-.43,3.65,8,8,0,0,0,2.61,3.35v1.68c.51,2.45,3.23,4.47,1.43,7.37-10,6.45-10,6.46-2.4,15.63a9,9,0,0,1,2.46,5.26C184.15,118.14,183.76,119.35,181.78,118.57Z"/><path class="cls-2" d="M39.6,82.59c1.17-.43,2.64-1.38.51-2-6-1.61-.88-4.2-.14-5,2.7-2.81,2.59-3.76-.9-5.77-2.48-1.43-2.76-4-1.71-6.63,1.2-3.07,2.94-1.34,4.6-.57a11.09,11.09,0,0,0,1.28.38c-3.53,6,5.83,6.73,4.82,11.74-.08.37.39.91.71,1.28,3.3,3.79,2.53,5.18-3.15,6.82a39.9,39.9,0,0,1-4.88.6C39.65,84.08,39.52,83.47,39.6,82.59Z"/><path class="cls-3" d="M165.36,23.14C169,16.27,173,10.68,181.89,11.72c3.22.38,6.3-2.16,10-.92-1.76,2.75-4.62,2.21-7,2.73-3.74.82-7.4,1.62-10,4.8-1.94,2.32-2.8,4.47.42,6.86C171.31,26.42,168.73,23.68,165.36,23.14Z"/><path class="cls-4" d="M0,41.57C.65,39.76,2.89,40,4.54,39c3.69-2,7.74-.18,11.45-1.69,1.29-.53,3.08.68,3.47,2.21S18,41.14,17.15,41.71C11.46,45.14,5.66,45.9,0,41.57Z"/><path class="cls-5" d="M92.69,6.73c-4,6.63-4.4,6.73-9.94,2.24.46-1.55,3.13.25,2.8-1.41-.39-2-1.91-.58-3.13-.32a5.67,5.67,0,0,1-3.3-.72c-1.06-.5-3-.63-2.44-2.46.43-1.4,2-.7,3-.73,4.28-.12,8.54,1,12.83.17a2.6,2.6,0,0,1,.73,1.21A3.25,3.25,0,0,1,92.69,6.73Z"/><path class="cls-6" d="M34.9,70.91c-.09,3.69-6,9.79-9.27,9.86a1.62,1.62,0,0,1-1.18-.45c-1.42-2.85,1.69-5.24.86-8.06,3-.77,5.31-4.35,9-2.28C34.66,70.14,34.79,70.73,34.9,70.91Z"/><path class="cls-7" d="M248.57,6.45c-3.72-2.14-8-1.12-11.88-2-2.43-.54-4.81-1.23-7.35-1-.94.08-2.27.31-2.4-1.05-.1-1.09,1-1.67,1.93-2,2-.82,3.92,0,5.81.52C239.3,2.22,243.89,3.63,248.5,5a1,1,0,0,1,.09,1.41Z"/><path class="cls-8" d="M92.58,4.44a4.92,4.92,0,0,0,0-.94c4.18-3.11,8.86.59,13.25-.9.78-.27,1.1,1.41,0,2.09a7.84,7.84,0,0,1-5.31.79c-1.77-.83-3.35.68-5.08.44A2.75,2.75,0,0,1,92.58,4.44Z"/><path class="cls-9" d="M92.58,4.44l3.18.94a4.08,4.08,0,0,1,3.45.94c.09,1.93,3.05.32,2.94,2.69-2.44.63-4.83,1.54-6.32-1.95-.52-1.22-2-.59-3.14-.33C92.65,6,92.62,5.2,92.58,4.44Z"/><path class="cls-10" d="M75.54,69.38l-1-1.88c2.17.6,3.81-1.94,6-1l-.05-.12c1.11,1.62.93,3.09-.73,4.17S76.76,70.5,75.54,69.38Z"/><path class="cls-11" d="M186.52,27.44a2.14,2.14,0,0,0-2.11,1.3,5,5,0,0,0-3.8-1.39c0-1.87,1-1.45,2-.94C184,26.76,185.44,26.33,186.52,27.44Z"/><path class="cls-12" d="M39.6,82.59l1.14.93c-1.46,1.56-3.23.67-5,.38Z"/><path class="cls-13" d="M140.58,41.43l-1.11,1.21-3.23-1.85C137.8,40.32,139.28,40.21,140.58,41.43Z"/><path class="cls-14" d="M182.66,26.41c-.71.25-1.64,0-2,.94-1.07,0-2.46-.8-1.83-1.5C179.84,24.68,181.49,25.24,182.66,26.41Z"/><path class="cls-15" d="M193.43,54.63c-1.59-2.15-.47-5.17-2.35-7.23,3.08,1,3.46,3.4,3.08,6.15A1.25,1.25,0,0,1,193.43,54.63Z"/><path class="cls-16" d="M194.52,71.52c-1.26-1-3-1.68-2.64-3.69a1,1,0,0,1,1.08-.92,1,1,0,0,1,.77.48C194,68.77,194.25,70.14,194.52,71.52Z"/><path class="cls-17" d="M194.37,80.39c1.53.3,3.77-1,4.16,1.86C196.75,82.5,195.26,82.14,194.37,80.39Z"/><path class="cls-18" d="M141.57,99.36c.94.44,2.41,0,2.64,1.54a14.19,14.19,0,0,1-1.69.49Z"/><path class="cls-19" d="M73.52,117.41c0,1.26.09,2.87-1.34,2.85-1.94,0-1.81-2.1-2.12-3.44a1.8,1.8,0,0,1,1.17-2.26,1.74,1.74,0,0,1,.68-.08C73.79,114.57,73.38,116.28,73.52,117.41Z"/><path class="cls-20" d="M82.15,125.65c2.22-3.06,4.24-1.9,6.13-1a1.22,1.22,0,0,1,.42,1.67,1.32,1.32,0,0,1-.29.33C85.83,128.5,84.73,125,82.15,125.65Z"/><path class="cls-21" d="M120.57,133.74c-2.57,1.63-4.65.31-6.93-.65C117.21,132,117.21,132,120.57,133.74Z"/><path class="cls-22" d="M56.27,118.81c-.41.74-.87,1.43-1.83,1.46s-1.09-.7-1-1.35a1.44,1.44,0,0,1,1.44-1.44l.23,0C55.91,117.57,56.2,118.14,56.27,118.81Z"/><path class="cls-23" d="M137.58,134.07a7,7,0,0,1,5.37-2C141.62,134.65,139.94,135,137.58,134.07Z"/><path class="cls-24" d="M73.36,110.14c.07.71,0,1.36-.85,1.5s-1.08-.64-1.08-1.26c0-.43.31-1.11.64-1.22C72.79,108.87,73.3,109.29,73.36,110.14Z"/></g></g></svg>