<svg xmlns="http://www.w3.org/2000/svg" viewBox="0 0 378.15 229.01"><defs><style>.cls-1{fill:#41b64a;}.cls-2{fill:#43b64a;}.cls-3{fill:#47b64a;}.cls-4{fill:#45b64a;}.cls-5{fill:#4eb84c;}.cls-6{fill:#57ba50;}.cls-7{fill:#55b94e;}.cls-8{fill:#53b94e;}.cls-9{fill:#52b84d;}.cls-10{fill:#57ba4f;}.cls-11{fill:#5dbb51;}.cls-12{fill:#59ba50;}.cls-13{fill:#deeed9;}.cls-14{fill:#e9f4e6;}.cls-15{fill:#5cbb50;}.cls-16{fill:#5cbb52;}.cls-17{fill:#e5f2e2;}.cls-18{fill:#6ebf52;}.cls-19{fill:#61bb4a;}.cls-20{fill:#67bd55;}.cls-21{fill:#9fd190;}.cls-22{fill:#5dbb50;}.cls-23{fill:#75c162;}.cls-24{fill:#b9ddae;}.cls-25{fill:#e3f1de;}.cls-26{fill:#64bc50;}.cls-27{fill:#81c56b;}.cls-28{fill:#85c772;}.cls-29{fill:#65bc4a;}.cls-30{fill:#93cc82;}.cls-31{fill:#6ebf56;}.cls-32{fill:#8cca7a;}.cls-33{fill:#f8fbf7;}.cls-34{fill:#f4f9f3;}.cls-35{fill:#e7f3e3;}.cls-36{fill:#f2f8f0;}.cls-37{fill:#6ebf55;}.cls-38{fill:#afd8a4;}</style></defs><title>north america</title><g id="Layer_2" data-name="Layer 2"><g id="Layer_2-2" data-name="Layer 2"><g id="north-america"><path class="cls-1" d="M20,66.22c-6.79,1.62-12.66,6.12-20,6.13l13-6.13c.14-2.64-2.12-.66-2.92-1.51-1.26-1.13-4.5-2.08-.22-3.66.8-.29,1.88-1.46,1.84-2.16-.53-7.45,5.28-6.63,9.64-7.29,3.82-.57,7.42-1.11,9.9-5.24-3.91.7-7.49,2.06-10.82-.6C25,39.65,32.64,45,37.72,41c-3-4.31-2.59-5.58,2.55-5.56,3.95,0,6.85-2.26,10.33-3.14A72.22,72.22,0,0,1,80,30.76c7.13,1.15,14.3,1.82,21.22,4.27a14.3,14.3,0,0,0,8.82-.31,46.26,46.26,0,0,1,20-1.93c5.33.66,10.94.52,15.44,3.21a14.34,14.34,0,0,0,10.67,1.88c2.07-.33,2,2.81,3.78,3.94,3.56-5,8.6-6,14.16-4,3.94,1.35,8.21-.85,12.33,2.11,1.4,1,6.17-2.57,9.31-4.22.51-.27,1.15-1.57.41-2.18-3.88-3.24.64-3.22,1.7-3.81,2.43-1.35,7-5.5,4.6,2.55a3.58,3.58,0,0,0,1.15,2.51c4.51-.83,3.82,1.15,2.66,4.12-.37,1,1.2,1.12,2.21.52,2.11-1.31,4.45-2.31,6.05-4.31a4.72,4.72,0,0,1,5.37-1.56c1.93.57,3.18,1.34,1.18,3.74-3.12,3.73-6.62,6-11.56,5.12-4.08-.73-7.51,4.25-12.36.67,4.24,4.61,1,5.35-2.09,5.75-8.31,1.05-14.45,6.62-21.59,10.11-2.17,1.07-4.59,3.78-3.81,5.25,1.27,2.38,2,5.94,6.08,6.32,4.79.43,8.43,4.41,13.3,5.07,1.26.17,1.2,1.4.79,2.41s-1,2.09-1.42,3.18c-.86,2.44-.56,5,1.84,6a3.94,3.94,0,0,0,5-2.37c0-.12.08-.24.11-.36,1-6,5.54-8,9.91-10.77,2.43-1.51,5.56-3.39,3.8-7.39a1.37,1.37,0,0,1-.09-.49c0-1.45,7.62-10.87,9.33-11.51,3.09-1.14,10.91,1,13,3.54a3.22,3.22,0,0,1,.32,4.13c-1,1.56.21,2.41,1,3.42,1.15,1.44,2.42.82,3.54.13,2.53-1.55,5-3.22,7.94-5.17L247.33,79c1.93-.27,6-2.6,7.19,1.41s-3.17,5.26-6,6.45c-5.75,2.38-11.44,4.45-18.09,3.6s-12.4,2.85-17.63,6.9c4.78-.49,8.83-4.4,14-2.74.74,3.16-5.78,4-2.34,8,2.38,2.69,5.43,2.42,8.67,1.91-3.85,4.21-9.74,3.83-14,6.79-.25.18-1.1-.09-1.33-.4a1.15,1.15,0,0,1,.31-1.6l.14-.08c1-.65,2-1.25,2.94-1.86.76-1.52,0-1.4-1.08-1-5.49.84-11.4,2.45-14.86,6.19-6.79,7.34-16.75,9.41-23.7,16.12-1,.95-2.16,2-1.82,3.27,1.56,5.87-2.28,8.74-6.45,10.61-3.73,1.68-6.75,4.2-9.92,6.49-5.31,3.83-3,9.6-2.82,14.75,0,1,.73,2,.57,2.86-.32,1.75-.8,4.07-2.6,4.39s-2.49-1.88-2.87-3.47c-.51-2.15-1.87-4-.89-6.63,1.11-3-1.75-5.1-4-4.84a9.05,9.05,0,0,1-5.08-1c-3.88-1.67-7.11-1.94-9.7,2.31-1.6,2.61-4,.5-5.77-.12-7.51-2.69-17.61,2.24-19.86,9.91a97.84,97.84,0,0,1-3.1,9.32c-1.72,4.26-.08,8.23,1.26,12,1.1,3,3.61,6.15,7.37,5.64,4.09-.55,8.88-.84,10.6-5.9.62-1.83,1.22-3.55,3.36-3.86s4.79-2.16,6.55.06c1.5,1.89-.54,4-1.3,5.82a85.47,85.47,0,0,1-3.91,8.54c-1.72,3.2-.26,3.53,2.56,3.6,2.63,0,5.08-1.5,7.85-.47,2.4.89,4.2,1.32,2.95,4.75-1.05,2.88-1.12,6.16-1.37,9.28-.47,5.89,4.45,9.78,10,7.95a6.58,6.58,0,0,1,3.9-.23v.59c-1.7,1.07-4.86.42-4.45,4,.09.73-1,.85-1.94.41-5.94-2.73-12.12-4.64-14.95-11.86-1.11-2.82-2.54-7.28-8.23-6.86-3.4.26-7.15-2-9.57-5.5-2.15-3.12-5-5.34-9.17-2.5a3.34,3.34,0,0,1-3.34.38c-6.1-3-12.38-5.64-18.21-9.09-3.06-1.81-6.17-4.5-4.06-9.26.92-2.08-.44-4.2-1.55-6.06-3.24-5.45-6.42-10.92-9.82-16.27-1.5-2.35-1.91-5-2.34-7.52-.36-2.2-.84-4.37-3.37-3.81s-2.29,2.8-1.4,4.87a149.14,149.14,0,0,1,6.57,20.19c.21.78.81,1.47.1,2.79-2.2-2.82-5.6-4.63-4.71-8.95.06-.3.08-.87-.05-.92-5.49-2.4-3.22-8.09-5-12-2.5-5.53-1.5-12-7.15-17-3.13-2.83-3.75-10.25-2-15.75a35.11,35.11,0,0,1,6.74-12.16c3-3.44,5.71-6.87,7.28-11.17.79-2.16,1.72-4.27,4-1,.61.87.85.7,2.8-1.56,1-3.19-1.17-5.6-2-8.33-2.9-2.71-3.6-7.92-1.58-11.7,2.66-5,.79-9.78-3.51-13-5.45-4.09-12-4.16-17.93-6.4a3.56,3.56,0,0,0-3.28.15,16.38,16.38,0,0,1-11.1,2.27c-3.81-.55-7.17,2.93-10.65,4.82C22.27,66.44,20.93,65.53,20,66.22Z"/><path class="cls-1" d="M350.08,32.42c-4.57,3.11-10,4.08-15.16,4A16.22,16.22,0,0,0,324,40.11c-2.26,1.79-4.66,3.18-7.6,3.29-7.48.29-12.56,4.2-16.36,10.37-2,3.28-4,7.6-9,5.71-7.89-3-7.76-5.14-8.41-12.28-.59-6.4,2.13-8.7,6.61-11.42,3.4-2.06,3.34-5.79.25-8.52a4.62,4.62,0,0,1-1.48-2.8c-1.75-6.82-6.86-10.19-13.81-8.76-2.49.51-4.6-.12-6.82-.57-1.08-.22-2.13-.85-1.73-2.48.31-1.27.67-2.19,2.18-2.12C278.08,11,286.49,4.44,296.24,3c1.46-.22,3.06-.77,4.39-.4,11.93,3.27,23.43-1.3,35.11-1.54,11-.22,22.47-3.43,33,2.73,3.18,1.86,6.08-1.53,9.41,0A3.9,3.9,0,0,1,375,6.07c-5.28.44-9.05,1-11.11,7.94-1.78,6-8.36,10.41-16.3,9.43.52,2.8,3,2.58,4.55,3.62,1.1.76,2.52,1.54,2.25,2.86-.14.64-1.92.94-3,1.39-2,.06-3.17-2.45-5.8-1.81C346.58,31.48,349.79,30,350.08,32.42Z"/><path class="cls-2" d="M231.09,46.41C233.7,40.54,239.4,43,244.64,42A32.11,32.11,0,0,1,237.29,34c-1.4-2.32-3.88-3.67-7.62-2.59-5,1.43-10.32-.12-15.5-.37-1.07-.06-2.64-.72-1.74-2.74,1.14-2.59,7.24-5.78,10.61-5.33.62,1.8-2,2.12-1.65,4.12,1.29.35,1.78-.91,2.59-1.48,3.51-2.44,6.91-4.49,11-.61a5.41,5.41,0,0,0,5.94,1.36c3.63-1.35,3.58,4.07,6.92,4.13,2.63,0,5.85.21,5.21,4.65-.34,2.35,2,3.24,3.65,4.22s3.17,1.54,1.64,3.67c-1.21,1.68-2.47,3.14-4.83,1.55A8.53,8.53,0,0,0,250,42.89c-1.35-.15-2.89,0-2.32,2.43,1.38,6,1.25,6-5,4.58a1.52,1.52,0,0,0-1.76.85c.54,1.49,2.94,1.41,3.09,3.3-4.58,1.78-8.05-.08-12.86-6.89-.36-.16-.48-.32-.37-.49A.48.48,0,0,1,231.09,46.41Z"/><path class="cls-3" d="M237.08,13.36c.5-1.4,2.83.06,3-1.9-.23-.93,0-1.42,1.06-1.07,1,0,3,.66,2.43-1-1.84-5.27,2.27-2.92,3.67-2.77,4,.45,7.94,1.08,11.62-1.26-3.31-.09-6.64.67-9.72-1.08-.36-.19-.49-.39-.38-.6s.22-.33.33-.33c4.75-1.65,9.76-1.15,14.63-1.68,7.56-.81,15.18-1,22.87-1.1-5.41,2.89-10.71,6.28-17,6.64-6.69.39-12.44,3.47-18.13,6.17a18.81,18.81,0,0,1-14.34,1.15.75.75,0,0,1-.28-.75C236.91,13.49,237,13.36,237.08,13.36Z"/><path class="cls-4" d="M150.15,30.29c.7-1.73,3.81,0,3.85-2.66a2.52,2.52,0,0,1,.28-3.52,8.54,8.54,0,0,1,5.21-.85,6.39,6.39,0,0,1,.75.09c4.41,2.07,9.65.23,14,3.1,1.45,1,2.31-1.31,3.4-2.16s2.11-1.26,3.14-.38c.79.67.15,1.57-.4,2.14-2.56,2.71-1.39,4.37,2.55,5.57-4.51,2.32-7.87,5.32-12.38,2.63-2.11-1.25-3.37.28-4.94,1-5.87,2.65-13,1.36-16.11-2.93,0-.07,0-.32.13-.42a1.4,1.4,0,0,1,.43-.24,17.08,17.08,0,0,1,3.43-.17C152,31.34,150.85,31.35,150.15,30.29Z"/><path class="cls-5" d="M155.22,24.36c-1.32.75-1.09,2.08-1.22,3.27-3.76-2.09-7.36-.84-10.68.92-2,1-3.27.77-4-1s1.36-1.71,2.36-2.38c6.3-4.57,12.94-7,20.65-3.08.12,1.28-1.79.19-2.06,1.22l-.1.07C158.68,24.56,156.68,23.22,155.22,24.36Z"/><path class="cls-5" d="M150.14,178.56c9.89-1.94,16.5,4.69,24.64,8.75-4,2.75-7.63.88-11,.7-1.24-.07-2-3.36-4.13-4.47s-4.08-2.76-6.57-3.28C152.39,179.17,150,181,150.14,178.56Z"/><path class="cls-6" d="M236.48,20.89l-17-1.23c-.78-.06-1.75.16-2.11-.83a2.09,2.09,0,0,1,1.13-2.5c1.21-.79,2.71-2.13,4.06-1.16,4.24,3,8.88,1.52,13.39,1.66,1.72.06,4.65-.7,4.75,1.21C240.82,20.5,237.45,20,236.48,20.89Z"/><path class="cls-3" d="M249.93,91.4c.69,2.1,2.85,2,4.36,2.89A3.23,3.23,0,0,1,256.15,97c0,1.72-1.6,1.16-2.54,1.61-4.39,2.07-8.56-.13-13.9-.33l8.44-7.87C249.29,89.75,249.54,90.7,249.93,91.4Z"/><path class="cls-7" d="M179.09,189.48c4-.51,7.87-.42,11.29,3.41-3.67.71-6.7,2.56-10.3,1.46C177.94,193.11,178.39,191.32,179.09,189.48Z"/><path class="cls-8" d="M206.68,45.19c1.41.51,2.84.91,4.16,1.54s2.5,1.37,1.74,3c-.66,1.38-2,1-3,.39-1.42-.92-2.84-.48-4.28-.26-1.22.18-2.84,1.48-3.57,0s1.13-2.5,2.21-3.38A12.7,12.7,0,0,1,206.68,45.19Z"/><path class="cls-9" d="M237.37,5.79c-3.8,4.23-7.7,4.16-12.71,1.94C228.94,5.39,232.43,2.87,237.37,5.79Z"/><path class="cls-10" d="M192.33,25.19c1.5-1.41,2.68-3.38,5-3.34,1.16,0,2.71-1.57,3.43.27.49,1.25-.56,2.84-1.57,3.34-2.52,1.24-5,4.3-8.17,1C190.87,25.39,191.2,24.89,192.33,25.19Z"/><path class="cls-11" d="M213.06,22.66a2.59,2.59,0,0,1-2.11,1.8c-1.43.28-2.89.39-4.34.59-1.15.15-2.61,2-3.35.21-.86-2.08,1.34-2.59,2.78-3.18a10,10,0,0,1,5.27-.78C212.11,21.42,212.93,21.62,213.06,22.66Z"/><path class="cls-12" d="M71.76,96.22c-1.92.49-2.93-1.19-4.3-1.92s-3-2.12-2.19-3.8c1.26-2.61,3-.13,4.55.07C72.38,91.79,73.59,93.49,71.76,96.22Z"/><path class="cls-13" d="M165.09,169.43c-.51-1.09-2.48-1.35-1.67-3.34,2.43-.65,3.29,4.21,6.51,1.58-1.75,2.25-3.81,3.52-4.71,5.77C163.87,172.11,164.26,170.8,165.09,169.43Z"/><path class="cls-14" d="M71.76,96.22c.65-2.33-.87-3.92-1.94-5.65l1.34-1.29c2,2.45,6.13,4.38,2,8.33Z"/><path class="cls-15" d="M192.56,34.11c-2.45,1-4.36,4.45-7.33.84C187.47,33.66,189.35,31.11,192.56,34.11Z"/><path class="cls-16" d="M231.09,46.41a2.36,2.36,0,0,1,0,.75,22.14,22.14,0,0,0-7.23,1,1.42,1.42,0,0,1-1.86-.77,1.55,1.55,0,0,1-.07-.23c-.23-1,.88-1.34,1.49-1.54C226.08,44.73,228.59,45.7,231.09,46.41Z"/><path class="cls-17" d="M150.15,30.29h7.6a7,7,0,0,1-7.69,1.31Z"/><path class="cls-18" d="M237.08,13.36V14.5c-2.54,2.05-4.84.43-7.69-.58C232.23,12.84,234.68,13.41,237.08,13.36Z"/><path class="cls-19" d="M179.09,189.48a7.88,7.88,0,0,0,1,4.87h-6.92c.54-3.09,3.69-.2,4.76-2.08C178.75,191.53,175.94,189.26,179.09,189.48Z"/><path class="cls-20" d="M161.1,193.55c1.9-1.12,3.48-.46,5.13.61C163.68,195.71,163.68,195.71,161.1,193.55Z"/><path class="cls-21" d="M20,66.22c.81-1.14,2-.93,3.11-.8,0,1.22,2.45.9,1.69,2.45-.49,1-1.7.7-2.66.64a.75.75,0,0,1-.31-.77c.07-.28.16-.41.24-.41C21.68,66.38,20.77,66.44,20,66.22Z"/><path class="cls-13" d="M10.09,64.71c.81-.13,1.63-.21,2.42-.41s1.91-1.55,2.48-.24S14.2,66,13,66.22Z"/><path class="cls-22" d="M197.56,193.69c-.51,2.06-1.92,2-3.41,1.38a1.57,1.57,0,0,1-.51-1.23,2.75,2.75,0,0,1,3.88-.18Z"/><path class="cls-23" d="M68,73.92c-.42.76-.45,2-1.72,1.9-.43,0-1.06-.84-1.11-1.34a1.79,1.79,0,0,1,1.68-1.9h.08C67.68,72.48,67.93,73.16,68,73.92Z"/><path class="cls-24" d="M177.92,192.28c-.8,2.49-3.82-.09-4.76,2.08-1.95-.1-2.13-1.08-.47-1.68S176.16,192.38,177.92,192.28Z"/><path class="cls-25" d="M220,106.35c1.11-1.15,2.77-1.86,3.45-.27.56,1.3-1.33,1.21-2.37,1.3Z"/><path class="cls-26" d="M249.93,91.4l-1.78-1c.74-1.42,2.13-1.55,4.54-2.83Z"/><path class="cls-27" d="M178.12,180c1.53-1.45,2.6-1.39,4-.15A4.18,4.18,0,0,1,178.12,180Z"/><path class="cls-28" d="M192.33,25.19l-1.26,1.25c-1-.35-2.91-.37-2.19-1.72C189.51,23.53,191.24,24.33,192.33,25.19Z"/><path class="cls-29" d="M249.06,3.32a5.8,5.8,0,0,0,.05.93h-5.2C246,2.89,247.6,3.42,249.06,3.32Z"/><path class="cls-30" d="M241.11,10.39l-1.06,1.07c-.65-.24-2.08.08-1.61-1.06C239,9.11,240.2,9.37,241.11,10.39Z"/><path class="cls-31" d="M176.19,182.18a1.75,1.75,0,0,1-2.18,1.17h0c-.55-.08-.75-.56-.26-1a4.23,4.23,0,0,1,1.67-.86C175.78,181.46,176.39,181.78,176.19,182.18Z"/><path class="cls-32" d="M22.07,67.33c0,.39.05.79.07,1.18-.62.53-1.29,1.06-2.07.41-.25-.21-.19-.8-.28-1.22Z"/><path class="cls-33" d="M171,102.43c1.3.83,2.15,2.49,4.29,1.34s4.05.21,4.74,2.24c.9,2.66-.81,3.07-3,2.66-.3,0-.81.48-1.06.86-1.37,2.08-3.06,4-5.6,2.19-3-2.19,1.51-3.25,1.19-5.16-4.62-.88-8.07,1.09-10,5.69-.75,1.81-1.05,3.89-3,5-.8.46-1.52,1.42-2.59.41-.79-.75-1.38-1.6-.67-2.59,3-4.16,4.38-10,10.7-10.88a3.23,3.23,0,0,1,1-.68C168.44,103.41,169.47,101.93,171,102.43Z"/><path class="cls-34" d="M171,102.43c-1.09,1.13-2.11,2.41-4,2,.26-2.56-2.31-.79-3-1.94-2-1.41-4.1-2-6.42-.53a3.8,3.8,0,0,1-4.67-.47c3.3-5.25,9.05-5,13.84-5.68C170.48,95.26,171.68,98.84,171,102.43Z"/><path class="cls-35" d="M176.91,115.66a11.13,11.13,0,0,1-5.78,2.82c-.7.15-2.16.19-1.91-.71.75-2.79,3.8-2.48,5.78-3.63C175.78,113.68,176.46,114.5,176.91,115.66Z"/><path class="cls-36" d="M181.75,112c2-1.52,3.32-3.15,5.7-2,.28.13.56,1,.42,1.17C186.28,112.91,184.41,113.27,181.75,112Z"/><path class="cls-37" d="M164.09,102.45l2.81-.21c.75,0,1.8-.34,1.79.76,0,.47-1.06.92-1.64,1.39l-1-.19Z"/><path class="cls-38" d="M155.22,24.36c1.34-1.82,3.31-.5,4.92-1C158.75,25,156.93,24.4,155.22,24.36Z"/></g></g></g></svg>