<svg xmlns="http://www.w3.org/2000/svg" viewBox="0 0 139.83 217.95"><defs><style>.cls-1{fill:#0f8140;}.cls-2{fill:#2b8845;}.cls-3{fill:#218240;}</style></defs><title>south america</title><g id="Layer_2" data-name="Layer 2"><g id="Layer_2-2" data-name="Layer 2"><path class="cls-1" d="M28.79,1.4c-.18,1.63-.43,3.26-.51,4.89-.06,1.28-.06,3,1.74,2.78,1.09-.11,2.14-1.7,1.51-2.69C29.27,2.82,32.78,2.06,34.32.81,36.24-.76,38,1.07,39.4,2.38c3.13,2.87,7.13,3.22,10.93,3.16a17.5,17.5,0,0,1,6.16,1,4.27,4.27,0,0,1,4.06,1.92c2.72,2.33,5.64,4.32,7.61,7.58s5.46,4.37,9.06,4.13c5.67-.37,10.26,2.13,12.61,7.3,2.25,5,4.4,9.8-2.26,13.26a1.63,1.63,0,0,0-.74,2.2,1.71,1.71,0,0,0,.32.44c2-.21,2.77-2.16,4.16-3.22,1.91-1.44,4.07-2.43,5.7-.41s-1.16,2.92-2.17,4.2a6.78,6.78,0,0,1-1.34,1c4.72,2,6-4.92,9.77-3.35,2.76,1.15,7.56,1.34,5.58,6.78,7.28-1.31,14-2.41,19.31,3.88a10.34,10.34,0,0,0,5.15,2.93c6.63,2,8.74,8.79,3.83,13.82-3.54,3.62-4.77,8.73-8.7,12-1.06.87-1,2.51-.74,3.8,1.75,8.55-1.19,16.36-4.06,24.06-1.12,3-2.74,5.89-7.68,5.11-2.75-.43-6.18,2.35-9.06,4.07s-5.78,3.63-3.45,7.92c.51,1,.09,2.69-.41,3.84a140.91,140.91,0,0,1-10.38,20c-1.64,2.56-4.28,3.36-7.43,1.91-1.68-.78-3.51-2-5.67-.91.42,2,2.7,2.09,3.7,3.7,3.54,5.74,1.44,10.39-5.32,11-2.68.23-6.2-1-4.14,4.25.57,1.47-.58,4.52-3.91,2.72-.87-.47-2-1.8-3-.38-.79,1.12.23,2.52.92,3.1,4.15,3.46,1.93,7,0,10.14-1.53,2.46-1.1,4.31.8,5.55,3.9,2.56,3.67,5.35,1.43,8.79a5.68,5.68,0,0,0-.88,5.2c.69,1.89,1.42,3.62-1.18,4.91a6.2,6.2,0,0,1-6.64-.77c-4.09-3.48-8.06-7.27-9.17-13-.57-3-3.08-4.55-5.91-6.11,3.64-2.26,4.57-4.3,2.47-8.45C47,178,43.9,175,43,171.73c-1.22-4.61-3.76-9.09-2.67-14.49,1.71-8.44-1.52-16.72-2.08-25.12-.37-5.5-1-11.08-.4-16.52C39.3,101.79,35.5,97,24.34,91.13c-4-2.1-5.58-5.62-8.18-8.71C10.16,75.29,9.26,65.32,2,59c-1.78-1.56-3.12-4.45-.8-7.37,1.39-1.75,3.91-4,0-6.1-1-.56-.54-2,0-3.17a31.36,31.36,0,0,1,5.53-8.79c5.09-5.27,6.66-11.28,3.56-18.13-.6-1.35-.88-2.47.2-3.63-.35-1.05,0-1.47,1.1-1.25A3.09,3.09,0,0,0,16,10a3.15,3.15,0,0,0,.49-.9,11.46,11.46,0,0,1,8.88-7.31C26.19,1.61,26.86.61,27.61,0A2.38,2.38,0,0,1,28.79,1.4Z"/><path class="cls-2" d="M83,216.87a14.09,14.09,0,0,1-11-.07c-2.12-.87-3.73-2.37-2.43-5,1.19-2.44,2.92-1.54,4.55-.54C77,213,79.8,214.86,83,216.87Z"/><path class="cls-3" d="M96.34,205.65c-1.12,1.49-1.85,3.79-4.08,2.09-.65-.5-2.21-1.16-1.58-2C92.3,203.51,94.39,206,96.34,205.65Z"/></g></g></svg>